# MagicaVoxel @ Ephtracy

# group
o 

# material
mtllib ArcaneIce.mtl
usemtl palette

# normals
vn -1 0 0
vn 1 0 0
vn 0 0 1
vn 0 0 -1
vn 0 -1 0
vn 0 1 0

# texcoords
vt 0.0644531 0.5
vt 0.365234 0.5
vt 0.369141 0.5
vt 0.373047 0.5
vt 0.447266 0.5
vt 0.970703 0.5

# verts
v -0.6 0 0.5
v -0.6 0 -0.5
v -0.6 0.1 0.4
v -0.6 0.1 -0.4
v -0.6 0.2 0.5
v -0.6 0.2 0.4
v -0.6 0.2 -0.4
v -0.6 0.2 -0.5
v -0.5 0 0.6
v -0.5 0 0.5
v -0.5 0 -0.5
v -0.5 0 -0.6
v -0.5 0.1 0.4
v -0.5 0.1 -0.4
v -0.5 0.2 0.6
v -0.5 0.2 0.5
v -0.5 0.2 0.4
v -0.5 0.2 -0.4
v -0.5 0.2 -0.5
v -0.5 0.2 -0.6
v -0.5 0.3 0.5
v -0.5 0.3 0.4
v -0.5 0.3 -0.4
v -0.5 0.3 -0.5
v -0.4 0.2 0.4
v -0.4 0.2 0.3
v -0.4 0.2 -0.3
v -0.4 0.2 -0.4
v -0.4 0.3 0.4
v -0.4 0.3 0.3
v -0.4 0.3 -0.3
v -0.4 0.3 -0.4
v -0.3 0.3 0.3
v -0.3 0.3 0.2
v -0.3 0.3 -0.2
v -0.3 0.3 -0.3
v -0.3 0.4 0.3
v -0.3 0.4 0.2
v -0.3 0.4 -0.2
v -0.3 0.4 -0.3
v -0.2 0.4 0.2
v -0.2 0.4 -0.2
v -0.2 0.5 0.2
v -0.2 0.5 -0.2
v 0.1 0.4 0.1
v 0.1 0.4 -0.1
v 0.1 0.5 0.1
v 0.1 0.5 -0.1
v 0.4 0.1 0.6
v 0.4 0.1 0.5
v 0.4 0.1 -0.5
v 0.4 0.1 -0.6
v 0.4 0.2 0.6
v 0.4 0.2 0.5
v 0.4 0.2 0.4
v 0.4 0.2 -0.4
v 0.4 0.2 -0.5
v 0.4 0.2 -0.6
v 0.4 0.3 0.5
v 0.4 0.3 0.4
v 0.4 0.3 -0.4
v 0.4 0.3 -0.5
v -0.4 0.1 0.6
v -0.4 0.1 0.5
v -0.4 0.1 -0.5
v -0.4 0.1 -0.6
v -0.4 0.2 0.6
v -0.4 0.2 0.5
v -0.4 0.2 0.4
v -0.4 0.2 -0.4
v -0.4 0.2 -0.5
v -0.4 0.2 -0.6
v -0.4 0.3 0.5
v -0.4 0.3 0.4
v -0.4 0.3 -0.4
v -0.4 0.3 -0.5
v -0.1 0.4 0.1
v -0.1 0.4 -0.1
v -0.1 0.5 0.1
v -0.1 0.5 -0.1
v 0.2 0.4 0.2
v 0.2 0.4 -0.2
v 0.2 0.5 0.2
v 0.2 0.5 -0.2
v 0.3 0.3 0.3
v 0.3 0.3 0.2
v 0.3 0.3 -0.2
v 0.3 0.3 -0.3
v 0.3 0.4 0.3
v 0.3 0.4 0.2
v 0.3 0.4 -0.2
v 0.3 0.4 -0.3
v 0.4 0.2 0.4
v 0.4 0.2 0.3
v 0.4 0.2 -0.3
v 0.4 0.2 -0.4
v 0.4 0.3 0.4
v 0.4 0.3 0.3
v 0.4 0.3 -0.3
v 0.4 0.3 -0.4
v 0.5 0 0.6
v 0.5 0 0.5
v 0.5 0 -0.5
v 0.5 0 -0.6
v 0.5 0.1 0.4
v 0.5 0.1 -0.4
v 0.5 0.2 0.6
v 0.5 0.2 0.5
v 0.5 0.2 0.4
v 0.5 0.2 -0.4
v 0.5 0.2 -0.5
v 0.5 0.2 -0.6
v 0.5 0.3 0.5
v 0.5 0.3 0.4
v 0.5 0.3 -0.4
v 0.5 0.3 -0.5
v 0.6 0 0.5
v 0.6 0 -0.5
v 0.6 0.1 0.4
v 0.6 0.1 -0.4
v 0.6 0.2 0.5
v 0.6 0.2 0.4
v 0.6 0.2 -0.4
v 0.6 0.2 -0.5
v -0.5 0 0.6
v -0.5 0.2 0.6
v -0.4 0.1 0.6
v -0.4 0.2 0.6
v 0.4 0.1 0.6
v 0.4 0.2 0.6
v 0.5 0 0.6
v 0.5 0.2 0.6
v -0.6 0 0.5
v -0.6 0.2 0.5
v -0.5 0 0.5
v -0.5 0.2 0.5
v -0.5 0.3 0.5
v -0.4 0.1 0.5
v -0.4 0.2 0.5
v -0.4 0.3 0.5
v 0.4 0.1 0.5
v 0.4 0.2 0.5
v 0.4 0.3 0.5
v 0.5 0 0.5
v 0.5 0.2 0.5
v 0.5 0.3 0.5
v 0.6 0 0.5
v 0.6 0.2 0.5
v -0.4 0.2 0.4
v -0.4 0.3 0.4
v -0.3 0.2 0.4
v -0.3 0.3 0.4
v 0.3 0.2 0.4
v 0.3 0.3 0.4
v 0.4 0.2 0.4
v 0.4 0.3 0.4
v -0.3 0.3 0.3
v -0.3 0.4 0.3
v -0.2 0.3 0.3
v -0.2 0.4 0.3
v 0.2 0.3 0.3
v 0.2 0.4 0.3
v 0.3 0.3 0.3
v 0.3 0.4 0.3
v -0.2 0.4 0.2
v -0.2 0.5 0.2
v 0.2 0.4 0.2
v 0.2 0.5 0.2
v -0.1 0.4 -0.1
v -0.1 0.5 -0.1
v 0.1 0.4 -0.1
v 0.1 0.5 -0.1
v -0.6 0.1 -0.4
v -0.6 0.2 -0.4
v -0.5 0.1 -0.4
v -0.5 0.2 -0.4
v -0.5 0.3 -0.4
v -0.4 0.2 -0.4
v -0.4 0.3 -0.4
v 0.4 0.2 -0.4
v 0.4 0.3 -0.4
v 0.5 0.1 -0.4
v 0.5 0.2 -0.4
v 0.5 0.3 -0.4
v 0.6 0.1 -0.4
v 0.6 0.2 -0.4
v -0.6 0.1 0.4
v -0.6 0.2 0.4
v -0.5 0.1 0.4
v -0.5 0.2 0.4
v -0.5 0.3 0.4
v -0.4 0.2 0.4
v -0.4 0.3 0.4
v 0.4 0.2 0.4
v 0.4 0.3 0.4
v 0.5 0.1 0.4
v 0.5 0.2 0.4
v 0.5 0.3 0.4
v 0.6 0.1 0.4
v 0.6 0.2 0.4
v -0.1 0.4 0.1
v -0.1 0.5 0.1
v 0.1 0.4 0.1
v 0.1 0.5 0.1
v -0.2 0.4 -0.2
v -0.2 0.5 -0.2
v 0.2 0.4 -0.2
v 0.2 0.5 -0.2
v -0.3 0.3 -0.3
v -0.3 0.4 -0.3
v -0.2 0.3 -0.3
v -0.2 0.4 -0.3
v 0.2 0.3 -0.3
v 0.2 0.4 -0.3
v 0.3 0.3 -0.3
v 0.3 0.4 -0.3
v -0.4 0.2 -0.4
v -0.4 0.3 -0.4
v -0.3 0.2 -0.4
v -0.3 0.3 -0.4
v 0.3 0.2 -0.4
v 0.3 0.3 -0.4
v 0.4 0.2 -0.4
v 0.4 0.3 -0.4
v -0.6 0 -0.5
v -0.6 0.2 -0.5
v -0.5 0 -0.5
v -0.5 0.2 -0.5
v -0.5 0.3 -0.5
v -0.4 0.1 -0.5
v -0.4 0.2 -0.5
v -0.4 0.3 -0.5
v 0.4 0.1 -0.5
v 0.4 0.2 -0.5
v 0.4 0.3 -0.5
v 0.5 0 -0.5
v 0.5 0.2 -0.5
v 0.5 0.3 -0.5
v 0.6 0 -0.5
v 0.6 0.2 -0.5
v -0.5 0 -0.6
v -0.5 0.2 -0.6
v -0.4 0.1 -0.6
v -0.4 0.2 -0.6
v 0.4 0.1 -0.6
v 0.4 0.2 -0.6
v 0.5 0 -0.6
v 0.5 0.2 -0.6
v -0.5 0 0.6
v 0.5 0 0.6
v -0.6 0 0.5
v -0.5 0 0.5
v 0.5 0 0.5
v 0.6 0 0.5
v -0.6 0 -0.5
v -0.5 0 -0.5
v 0.5 0 -0.5
v 0.6 0 -0.5
v -0.5 0 -0.6
v 0.5 0 -0.6
v -0.4 0.1 0.6
v 0.4 0.1 0.6
v -0.4 0.1 0.5
v 0.4 0.1 0.5
v -0.6 0.1 0.4
v -0.5 0.1 0.4
v 0.5 0.1 0.4
v 0.6 0.1 0.4
v -0.6 0.1 -0.4
v -0.5 0.1 -0.4
v 0.5 0.1 -0.4
v 0.6 0.1 -0.4
v -0.4 0.1 -0.5
v 0.4 0.1 -0.5
v -0.4 0.1 -0.6
v 0.4 0.1 -0.6
v -0.5 0.2 0.6
v -0.4 0.2 0.6
v 0.4 0.2 0.6
v 0.5 0.2 0.6
v -0.6 0.2 0.5
v -0.5 0.2 0.5
v -0.4 0.2 0.5
v 0.4 0.2 0.5
v 0.5 0.2 0.5
v 0.6 0.2 0.5
v -0.6 0.2 0.4
v -0.5 0.2 0.4
v -0.4 0.2 0.4
v -0.3 0.2 0.4
v 0.3 0.2 0.4
v 0.4 0.2 0.4
v 0.5 0.2 0.4
v 0.6 0.2 0.4
v -0.4 0.2 0.3
v 0.4 0.2 0.3
v -0.4 0.2 -0.3
v 0.4 0.2 -0.3
v -0.6 0.2 -0.4
v -0.5 0.2 -0.4
v -0.4 0.2 -0.4
v -0.3 0.2 -0.4
v 0.3 0.2 -0.4
v 0.4 0.2 -0.4
v 0.5 0.2 -0.4
v 0.6 0.2 -0.4
v -0.6 0.2 -0.5
v -0.5 0.2 -0.5
v -0.4 0.2 -0.5
v 0.4 0.2 -0.5
v 0.5 0.2 -0.5
v 0.6 0.2 -0.5
v -0.5 0.2 -0.6
v -0.4 0.2 -0.6
v 0.4 0.2 -0.6
v 0.5 0.2 -0.6
v -0.5 0.3 0.5
v -0.4 0.3 0.5
v 0.4 0.3 0.5
v 0.5 0.3 0.5
v -0.5 0.3 0.4
v -0.4 0.3 0.4
v -0.3 0.3 0.4
v 0.3 0.3 0.4
v 0.4 0.3 0.4
v 0.5 0.3 0.4
v -0.4 0.3 0.3
v -0.3 0.3 0.3
v -0.2 0.3 0.3
v 0.2 0.3 0.3
v 0.3 0.3 0.3
v 0.4 0.3 0.3
v -0.3 0.3 0.2
v 0.3 0.3 0.2
v -0.3 0.3 -0.2
v 0.3 0.3 -0.2
v -0.4 0.3 -0.3
v -0.3 0.3 -0.3
v -0.2 0.3 -0.3
v 0.2 0.3 -0.3
v 0.3 0.3 -0.3
v 0.4 0.3 -0.3
v -0.5 0.3 -0.4
v -0.4 0.3 -0.4
v -0.3 0.3 -0.4
v 0.3 0.3 -0.4
v 0.4 0.3 -0.4
v 0.5 0.3 -0.4
v -0.5 0.3 -0.5
v -0.4 0.3 -0.5
v 0.4 0.3 -0.5
v 0.5 0.3 -0.5
v -0.3 0.4 0.3
v -0.2 0.4 0.3
v 0.2 0.4 0.3
v 0.3 0.4 0.3
v -0.3 0.4 0.2
v -0.2 0.4 0.2
v 0.2 0.4 0.2
v 0.3 0.4 0.2
v -0.1 0.4 0.1
v 0.1 0.4 0.1
v -0.1 0.4 -0.1
v 0.1 0.4 -0.1
v -0.3 0.4 -0.2
v -0.2 0.4 -0.2
v 0.2 0.4 -0.2
v 0.3 0.4 -0.2
v -0.3 0.4 -0.3
v -0.2 0.4 -0.3
v 0.2 0.4 -0.3
v 0.3 0.4 -0.3
v -0.2 0.5 0.2
v 0.2 0.5 0.2
v -0.1 0.5 0.1
v 0.1 0.5 0.1
v -0.1 0.5 -0.1
v 0.1 0.5 -0.1
v -0.2 0.5 -0.2
v 0.2 0.5 -0.2

# faces
f 3/5/1 2/5/1 1/5/1
f 4/5/1 2/5/1 3/5/1
f 5/5/1 3/5/1 1/5/1
f 6/5/1 3/5/1 5/5/1
f 7/5/1 2/5/1 4/5/1
f 8/5/1 2/5/1 7/5/1
f 15/5/1 10/5/1 9/5/1
f 16/5/1 10/5/1 15/5/1
f 17/6/1 14/6/1 13/6/1
f 18/6/1 14/6/1 17/6/1
f 19/5/1 12/5/1 11/5/1
f 20/5/1 12/5/1 19/5/1
f 21/5/1 17/5/1 16/5/1
f 22/5/1 17/5/1 21/5/1
f 23/5/1 19/5/1 18/5/1
f 24/5/1 19/5/1 23/5/1
f 29/5/1 26/5/1 25/5/1
f 30/6/1 27/6/1 26/6/1
f 30/5/1 26/5/1 29/5/1
f 31/5/1 28/5/1 27/5/1
f 31/6/1 27/6/1 30/6/1
f 32/5/1 28/5/1 31/5/1
f 37/5/1 34/5/1 33/5/1
f 38/6/1 35/6/1 34/6/1
f 38/5/1 34/5/1 37/5/1
f 39/5/1 36/5/1 35/5/1
f 39/6/1 35/6/1 38/6/1
f 40/5/1 36/5/1 39/5/1
f 43/5/1 42/5/1 41/5/1
f 44/5/1 42/5/1 43/5/1
f 47/5/1 46/5/1 45/5/1
f 48/5/1 46/5/1 47/5/1
f 53/5/1 50/5/1 49/5/1
f 54/5/1 50/5/1 53/5/1
f 57/5/1 52/5/1 51/5/1
f 58/5/1 52/5/1 57/5/1
f 59/5/1 55/5/1 54/5/1
f 60/5/1 55/5/1 59/5/1
f 61/5/1 57/5/1 56/5/1
f 62/5/1 57/5/1 61/5/1
f 63/5/2 64/5/2 67/5/2
f 67/5/2 64/5/2 68/5/2
f 65/5/2 66/5/2 71/5/2
f 71/5/2 66/5/2 72/5/2
f 68/5/2 69/5/2 73/5/2
f 73/5/2 69/5/2 74/5/2
f 70/5/2 71/5/2 75/5/2
f 75/5/2 71/5/2 76/5/2
f 77/5/2 78/5/2 79/5/2
f 79/5/2 78/5/2 80/5/2
f 81/5/2 82/5/2 83/5/2
f 83/5/2 82/5/2 84/5/2
f 85/5/2 86/5/2 89/5/2
f 86/6/2 87/6/2 90/6/2
f 89/5/2 86/5/2 90/5/2
f 87/5/2 88/5/2 91/5/2
f 90/6/2 87/6/2 91/6/2
f 91/5/2 88/5/2 92/5/2
f 93/5/2 94/5/2 97/5/2
f 94/6/2 95/6/2 98/6/2
f 97/5/2 94/5/2 98/5/2
f 95/5/2 96/5/2 99/5/2
f 98/6/2 95/6/2 99/6/2
f 99/5/2 96/5/2 100/5/2
f 101/5/2 102/5/2 107/5/2
f 107/5/2 102/5/2 108/5/2
f 105/6/2 106/6/2 109/6/2
f 109/6/2 106/6/2 110/6/2
f 103/5/2 104/5/2 111/5/2
f 111/5/2 104/5/2 112/5/2
f 108/5/2 109/5/2 113/5/2
f 113/5/2 109/5/2 114/5/2
f 110/5/2 111/5/2 115/5/2
f 115/5/2 111/5/2 116/5/2
f 117/5/2 118/5/2 119/5/2
f 119/5/2 118/5/2 120/5/2
f 117/5/2 119/5/2 121/5/2
f 121/5/2 119/5/2 122/5/2
f 120/5/2 118/5/2 123/5/2
f 123/5/2 118/5/2 124/5/2
f 127/5/3 126/5/3 125/5/3
f 128/5/3 126/5/3 127/5/3
f 129/5/3 127/5/3 125/5/3
f 131/5/3 129/5/3 125/5/3
f 131/5/3 130/5/3 129/5/3
f 132/5/3 130/5/3 131/5/3
f 135/5/3 134/5/3 133/5/3
f 136/5/3 134/5/3 135/5/3
f 139/5/3 137/5/3 136/5/3
f 140/5/3 137/5/3 139/5/3
f 141/6/3 139/6/3 138/6/3
f 142/6/3 139/6/3 141/6/3
f 145/5/3 143/5/3 142/5/3
f 146/5/3 143/5/3 145/5/3
f 147/5/3 145/5/3 144/5/3
f 148/5/3 145/5/3 147/5/3
f 151/5/3 150/5/3 149/5/3
f 152/5/3 150/5/3 151/5/3
f 153/6/3 152/6/3 151/6/3
f 154/6/3 152/6/3 153/6/3
f 155/5/3 154/5/3 153/5/3
f 156/5/3 154/5/3 155/5/3
f 159/5/3 158/5/3 157/5/3
f 160/5/3 158/5/3 159/5/3
f 161/6/3 160/6/3 159/6/3
f 162/6/3 160/6/3 161/6/3
f 163/5/3 162/5/3 161/5/3
f 164/5/3 162/5/3 163/5/3
f 167/5/3 166/5/3 165/5/3
f 168/5/3 166/5/3 167/5/3
f 171/5/3 170/5/3 169/5/3
f 172/5/3 170/5/3 171/5/3
f 175/5/3 174/5/3 173/5/3
f 176/5/3 174/5/3 175/5/3
f 178/5/3 177/5/3 176/5/3
f 179/5/3 177/5/3 178/5/3
f 183/5/3 181/5/3 180/5/3
f 184/5/3 181/5/3 183/5/3
f 185/5/3 183/5/3 182/5/3
f 186/5/3 183/5/3 185/5/3
f 187/5/4 188/5/4 189/5/4
f 189/5/4 188/5/4 190/5/4
f 190/5/4 191/5/4 192/5/4
f 192/5/4 191/5/4 193/5/4
f 194/5/4 195/5/4 197/5/4
f 197/5/4 195/5/4 198/5/4
f 196/5/4 197/5/4 199/5/4
f 199/5/4 197/5/4 200/5/4
f 201/5/4 202/5/4 203/5/4
f 203/5/4 202/5/4 204/5/4
f 205/5/4 206/5/4 207/5/4
f 207/5/4 206/5/4 208/5/4
f 209/5/4 210/5/4 211/5/4
f 211/5/4 210/5/4 212/5/4
f 211/6/4 212/6/4 213/6/4
f 213/6/4 212/6/4 214/6/4
f 213/5/4 214/5/4 215/5/4
f 215/5/4 214/5/4 216/5/4
f 217/5/4 218/5/4 219/5/4
f 219/5/4 218/5/4 220/5/4
f 219/6/4 220/6/4 221/6/4
f 221/6/4 220/6/4 222/6/4
f 221/5/4 222/5/4 223/5/4
f 223/5/4 222/5/4 224/5/4
f 225/5/4 226/5/4 227/5/4
f 227/5/4 226/5/4 228/5/4
f 228/5/4 229/5/4 231/5/4
f 231/5/4 229/5/4 232/5/4
f 230/6/4 231/6/4 233/6/4
f 233/6/4 231/6/4 234/6/4
f 234/5/4 235/5/4 237/5/4
f 237/5/4 235/5/4 238/5/4
f 236/5/4 237/5/4 239/5/4
f 239/5/4 237/5/4 240/5/4
f 241/5/4 242/5/4 243/5/4
f 243/5/4 242/5/4 244/5/4
f 241/5/4 243/5/4 245/5/4
f 241/5/4 245/5/4 247/5/4
f 245/5/4 246/5/4 247/5/4
f 247/5/4 246/5/4 248/5/4
f 252/5/5 250/5/5 249/5/5
f 253/5/5 250/5/5 252/5/5
f 255/5/5 252/5/5 251/5/5
f 256/6/5 253/6/5 252/6/5
f 256/5/5 252/5/5 255/5/5
f 257/5/5 254/5/5 253/5/5
f 257/6/5 253/6/5 256/6/5
f 258/5/5 254/5/5 257/5/5
f 259/5/5 257/5/5 256/5/5
f 260/5/5 257/5/5 259/5/5
f 261/5/6 262/5/6 263/5/6
f 263/5/6 262/5/6 264/5/6
f 265/5/6 266/5/6 269/5/6
f 269/5/6 266/5/6 270/5/6
f 267/5/6 268/5/6 271/5/6
f 271/5/6 268/5/6 272/5/6
f 273/5/6 274/5/6 275/5/6
f 275/5/6 274/5/6 276/5/6
f 277/5/6 278/5/6 282/5/6
f 282/5/6 278/5/6 283/5/6
f 279/5/6 280/5/6 284/5/6
f 284/5/6 280/5/6 285/5/6
f 281/5/6 282/5/6 287/5/6
f 287/5/6 282/5/6 288/5/6
f 283/6/6 284/6/6 289/6/6
f 289/6/6 284/6/6 290/6/6
f 290/6/6 284/6/6 291/6/6
f 291/6/6 284/6/6 292/6/6
f 285/5/6 286/5/6 293/5/6
f 293/5/6 286/5/6 294/5/6
f 288/6/6 289/6/6 295/6/6
f 292/6/6 293/6/6 296/6/6
f 288/6/6 295/6/6 297/6/6
f 296/6/6 293/6/6 298/6/6
f 288/6/6 297/6/6 300/6/6
f 300/6/6 297/6/6 301/6/6
f 298/6/6 293/6/6 304/6/6
f 304/6/6 293/6/6 305/6/6
f 299/5/6 300/5/6 307/5/6
f 307/5/6 300/5/6 308/5/6
f 302/6/6 303/6/6 309/6/6
f 303/6/6 304/6/6 309/6/6
f 301/6/6 302/6/6 309/6/6
f 309/6/6 304/6/6 310/6/6
f 305/5/6 306/5/6 311/5/6
f 311/5/6 306/5/6 312/5/6
f 308/5/6 309/5/6 313/5/6
f 313/5/6 309/5/6 314/5/6
f 310/5/6 311/5/6 315/5/6
f 315/5/6 311/5/6 316/5/6
f 317/5/6 318/5/6 321/5/6
f 321/5/6 318/5/6 322/5/6
f 319/5/6 320/5/6 325/5/6
f 325/5/6 320/5/6 326/5/6
f 322/5/6 323/5/6 327/5/6
f 323/6/6 324/6/6 328/6/6
f 327/5/6 323/5/6 328/5/6
f 328/6/6 324/6/6 329/6/6
f 329/6/6 324/6/6 330/6/6
f 324/5/6 325/5/6 331/5/6
f 330/6/6 324/6/6 331/6/6
f 331/5/6 325/5/6 332/5/6
f 327/6/6 328/6/6 333/6/6
f 331/6/6 332/6/6 334/6/6
f 327/6/6 333/6/6 335/6/6
f 334/6/6 332/6/6 336/6/6
f 327/6/6 335/6/6 337/6/6
f 337/6/6 335/6/6 338/6/6
f 336/6/6 332/6/6 341/6/6
f 341/6/6 332/6/6 342/6/6
f 337/5/6 338/5/6 344/5/6
f 339/6/6 340/6/6 345/6/6
f 338/6/6 339/6/6 345/6/6
f 344/5/6 338/5/6 345/5/6
f 340/6/6 341/6/6 345/6/6
f 341/5/6 342/5/6 346/5/6
f 345/6/6 341/6/6 346/6/6
f 346/5/6 342/5/6 347/5/6
f 343/5/6 344/5/6 349/5/6
f 349/5/6 344/5/6 350/5/6
f 347/5/6 348/5/6 351/5/6
f 351/5/6 348/5/6 352/5/6
f 353/5/6 354/5/6 357/5/6
f 354/6/6 355/6/6 358/6/6
f 357/5/6 354/5/6 358/5/6
f 355/5/6 356/5/6 359/5/6
f 358/6/6 355/6/6 359/6/6
f 359/5/6 356/5/6 360/5/6
f 361/6/6 362/6/6 363/6/6
f 363/6/6 362/6/6 364/6/6
f 357/6/6 358/6/6 365/6/6
f 365/6/6 358/6/6 366/6/6
f 359/6/6 360/6/6 367/6/6
f 367/6/6 360/6/6 368/6/6
f 365/5/6 366/5/6 369/5/6
f 366/6/6 367/6/6 370/6/6
f 369/5/6 366/5/6 370/5/6
f 367/5/6 368/5/6 371/5/6
f 370/6/6 367/6/6 371/6/6
f 371/5/6 368/5/6 372/5/6
f 373/5/6 374/5/6 375/5/6
f 375/5/6 374/5/6 376/5/6
f 373/5/6 375/5/6 377/5/6
f 376/5/6 374/5/6 378/5/6
f 373/5/6 377/5/6 379/5/6
f 377/5/6 378/5/6 379/5/6
f 378/5/6 374/5/6 380/5/6
f 379/5/6 378/5/6 380/5/6
